<?xml version="1.0" standalone="no"?>
<!DOCTYPE svg PUBLIC "-//W3C//DTD SVG 20010904//EN"
 "http://www.w3.org/TR/2001/REC-SVG-20010904/DTD/svg10.dtd">
<svg version="1.0" xmlns="http://www.w3.org/2000/svg"
 width="497.000000pt" height="497.000000pt" viewBox="0 0 497.000000 497.000000"
 preserveAspectRatio="xMidYMid meet">
<metadata>
Created by potrace 1.14, written by Peter Selinger 2001-2017
</metadata>
<g transform="translate(0.000000,497.000000) scale(0.100000,-0.100000)"
fill="#000000" stroke="none">
<path d="M1257 3692 l-1217 -1217 1220 -1220 1220 -1220 1220 1220 1220 1220
-1217 1217 c-670 670 -1220 1218 -1223 1218 -3 0 -553 -548 -1223 -1218z
m1478 238 l250 -250 352 0 353 0 0 -353 0 -352 250 -250 250 -250 -250 -250
-250 -250 0 -353 0 -352 -352 0 -353 0 -252 -252 -253 -253 -253 253 -252 252
-353 0 -352 0 0 352 0 353 -250 250 -250 250 250 250 250 250 0 352 0 353 353
0 352 0 250 250 c137 138 252 250 255 250 3 0 118 -112 255 -250z"/>
<path d="M2290 3156 c-107 -33 -126 -42 -201 -91 -326 -217 -415 -656 -198
-980 281 -420 897 -420 1178 0 256 383 80 904 -358 1059 -76 27 -101 31 -216
33 -113 3 -140 0 -205 -21z m263 -596 c59 -47 56 -143 -7 -181 -91 -55 -199
26 -166 126 16 48 53 75 105 75 27 0 51 -7 68 -20z"/>
</g>
</svg>
